<?xml version="1.0" encoding="utf-8"?>
<svg width="678" height="674.667" viewBox="0 0 678 674.667" fill="none" xmlns="http://www.w3.org/2000/svg">
  <defs>
    <linearGradient id="gradient_1" gradientUnits="userSpaceOnUse" x1="322.034" y1="0" x2="322.034" y2="666.667">
      <stop offset="0" stop-color="#FFC130" />
      <stop offset="1" stop-color="#805F14" />
    </linearGradient>
    <linearGradient id="gradient_2" gradientUnits="userSpaceOnUse" x1="322.034" y1="0" x2="322.034" y2="666.667">
      <stop offset="0" stop-color="#23C8DB" />
      <stop offset="1" stop-color="#1B6169" />
    </linearGradient>
  </defs>
  <g>
    <g>
      <g transform="translate(11.333 8)">
        <path d="M332.535 0C370.268 1.58667 408.015 8.22667 443.162 22.28C480.002 36.6 514.202 57.8533 543.055 84.8933C590.935 129.533 623.495 189.693 637.228 253.507C649.708 313 645.668 376.8 620.495 432.547C600.282 477.093 570.442 517.347 533.402 549.333C513.948 565.827 492.588 580.347 469.215 590.707C440.588 603.027 409.348 606.24 378.828 610.853C362.442 613.16 345.855 611.76 329.375 612.027C307.215 612.107 285.682 617.907 263.882 621.08C256.908 621.973 250.442 624.867 243.668 626.613C250.868 621.88 258.988 618.96 266.988 615.933C255.295 618.413 243.868 622.32 233.188 627.707C227.322 630.613 221.922 634.373 216.122 637.4C218.402 635.293 220.788 633.307 223.215 631.373C223.215 631.373 220.522 630.133 220.522 630.133C223.028 629.747 225.548 629.52 228.042 629.147C226.868 628.347 225.695 627.573 224.508 626.813C234.975 619.56 246.002 613.227 257.562 607.907C238.575 614.04 222.322 626.187 206.375 637.827C207.308 636.427 209.175 633.627 210.108 632.227C206.228 634.853 202.455 637.64 198.655 640.373C203.082 635.533 208.028 631.213 212.628 626.547C195.748 635.76 182.655 650.547 172.548 666.667C172.548 666.667 171.508 666.667 171.508 666.667C175.188 648.72 187.415 633.96 201.255 622.613C219.402 608.08 241.095 598.493 263.482 592.667C322.668 577.133 386.122 586.893 444.082 565.453C490.948 549.027 532.415 518.24 562.922 479.187C593.988 440.56 611.575 391.947 615.695 342.76C622.242 266.213 597.428 187.147 546.948 129.04C483.535 55.9467 384.322 15.8533 287.935 24.32C229.828 29.2533 173.308 50.6933 126.148 84.92C77.0151 120.76 37.9351 171.04 18.1218 228.76C3.10842 271.32 -2.13158 317.293 2.98842 362.133C3.84175 370.08 5.52176 377.907 6.41509 385.853C-13.1049 297.227 12.8284 200.6 71.8684 132.027C110.415 87.2667 161.468 53.5067 217.588 35.1467C266.335 19.3467 318.962 14.96 369.468 24.1733C422.468 33.52 473.095 56.4133 514.815 90.48C542.735 113.04 566.348 140.867 584.148 172.053C558.842 119.453 514.828 77.2133 463.895 49.4667C417.175 23.9333 363.828 10.88 310.628 11.2933C247.028 12.4533 184.095 33.08 131.655 68.9733C100.135 90.4267 72.6818 117.6 50.1884 148.333C55.2684 139.96 61.6551 132.493 67.8551 124.947C91.3884 96.7467 120.282 73.3067 151.695 54.4133C201.602 24.5333 259.228 7.64 317.375 6.02667C325.415 5.64 333.455 6.4 341.495 6.06667C281.615 0.746667 219.868 12.1867 167.228 41.6267C167.335 41.0533 167.442 40.48 167.562 39.9067C173.842 37.5333 179.308 33.56 185.348 30.7067C223.908 11.3067 266.922 1.8 309.908 0C309.908 0 332.535 0 332.535 0Z" fill="url(#gradient_1)" transform="translate(10.665 0)" />
        <path d="M259.52 12.5132C266.853 6.44654 275.28 0.286537 285.173 0.00653839C292.187 -0.206795 298.693 4.81988 300.573 11.5132C303.32 21.2599 300.627 31.3532 298.307 40.8999C296.16 49.8065 293.987 58.6999 291.747 67.5799C286.027 84.9399 277.813 101.393 267.987 116.78C274.36 110.327 279.387 102.767 285.067 95.7265C282.933 101.607 279.293 106.753 276.253 112.18C269.947 122.967 263.013 133.38 255.627 143.46C263.04 136.087 269.933 128.22 276.973 120.473C275.053 126.887 271.147 132.247 267.293 137.58C267.067 137.873 266.627 138.447 266.4 138.727C267.44 138.353 269.533 137.607 270.573 137.233C265.88 149.833 260.16 162.247 252.013 173.007C255.507 170.687 258.787 168.073 262.2 165.62C251.44 182.353 238.093 197.18 225.36 212.393C242.347 205.127 254.933 190.927 265.12 175.967C263.653 183.007 261.773 189.953 260.107 196.953C254.88 220.74 243.213 242.38 231.747 263.66C237.707 259.407 242.587 253.913 247.453 248.5C241.227 274.113 235.053 299.74 228.64 325.3C221.96 350.42 212.88 376.473 193.12 394.433C201.733 391.02 208.893 384.873 214.733 377.78C210.907 392.62 199.013 403.753 186.147 411.207C165.92 423.167 142.027 427.473 122.48 440.74C117.013 444.34 112.373 448.993 108.013 453.833C134.08 441.54 166.267 443.54 190.4 459.353C161.253 462.087 136.92 481.74 107.747 484.127C95.52 485.353 81.8267 482.02 74.0267 471.927C109.307 362.593 151.827 255.3 206.293 154.02C171.787 214.393 140.627 276.66 112.44 340.22C101.493 365.58 90.3333 390.9 81.5333 417.113C73.3333 440.82 65.44 464.647 58.3467 488.713C56.36 495.953 52.5333 502.487 49.6133 509.367C42.1067 525.647 34.7733 542.02 27.08 558.22C34.3733 522.833 44.84 488.18 56.2933 453.94C26.04 442.167 2.70667 413.086 0 380.433C10.3467 406.927 33.1866 428.393 60.6667 436.06C59.72 430.94 54.96 428.367 52.0133 424.54C42.52 412.833 37.4267 398.1 35.3867 383.3C32.3467 357.7 36.04 331.607 30.52 306.247C45.04 329.22 40.44 358.447 53.0667 382.153C56.3467 388.66 60.9467 394.46 66.5867 399.073C67.28 394.94 70 390.42 67.3733 386.473C34 321.487 51.88 234.393 108.853 188.42C104.133 207.233 105.36 227.473 112.747 245.433C112.56 214.233 120.653 183.353 134.507 155.5C149.2 125.247 170.213 98.5399 193.307 74.2732C214.28 52.5399 236.8 32.4065 259.52 12.5132Z" fill="url(#gradient_1)" transform="translate(152.2 95.193)" />
      </g>
      <g>
        <g transform="translate(10.665 0)">
          <path d="M332.535 0C370.268 1.58667 408.015 8.22667 443.162 22.28C480.002 36.6 514.202 57.8533 543.055 84.8933C590.935 129.533 623.495 189.693 637.228 253.507C649.708 313 645.668 376.8 620.495 432.547C600.282 477.093 570.442 517.347 533.402 549.333C513.948 565.827 492.588 580.347 469.215 590.707C440.588 603.027 409.348 606.24 378.828 610.853C362.442 613.16 345.855 611.76 329.375 612.027C307.215 612.107 285.682 617.907 263.882 621.08C256.908 621.973 250.442 624.867 243.668 626.613C250.868 621.88 258.988 618.96 266.988 615.933C255.295 618.413 243.868 622.32 233.188 627.707C227.322 630.613 221.922 634.373 216.122 637.4C218.402 635.293 220.788 633.307 223.215 631.373C223.215 631.373 220.522 630.133 220.522 630.133C223.028 629.747 225.548 629.52 228.042 629.147C226.868 628.347 225.695 627.573 224.508 626.813C234.975 619.56 246.002 613.227 257.562 607.907C238.575 614.04 222.322 626.187 206.375 637.827C207.308 636.427 209.175 633.627 210.108 632.227C206.228 634.853 202.455 637.64 198.655 640.373C203.082 635.533 208.028 631.213 212.628 626.547C195.748 635.76 182.655 650.547 172.548 666.667C172.548 666.667 171.508 666.667 171.508 666.667C175.188 648.72 187.415 633.96 201.255 622.613C219.402 608.08 241.095 598.493 263.482 592.667C322.668 577.133 386.122 586.893 444.082 565.453C490.948 549.027 532.415 518.24 562.922 479.187C593.988 440.56 611.575 391.947 615.695 342.76C622.242 266.213 597.428 187.147 546.948 129.04C483.535 55.9467 384.322 15.8533 287.935 24.32C229.828 29.2533 173.308 50.6933 126.148 84.92C77.0151 120.76 37.9351 171.04 18.1218 228.76C3.10842 271.32 -2.13158 317.293 2.98842 362.133C3.84175 370.08 5.52176 377.907 6.41509 385.853C-13.1049 297.227 12.8284 200.6 71.8684 132.027C110.415 87.2667 161.468 53.5067 217.588 35.1467C266.335 19.3467 318.962 14.96 369.468 24.1733C422.468 33.52 473.095 56.4133 514.815 90.48C542.735 113.04 566.348 140.867 584.148 172.053C558.842 119.453 514.828 77.2133 463.895 49.4667C417.175 23.9333 363.828 10.88 310.628 11.2933C247.028 12.4533 184.095 33.08 131.655 68.9733C100.135 90.4267 72.6818 117.6 50.1884 148.333C55.2684 139.96 61.6551 132.493 67.8551 124.947C91.3884 96.7467 120.282 73.3067 151.695 54.4133C201.602 24.5333 259.228 7.64 317.375 6.02667C325.415 5.64 333.455 6.4 341.495 6.06667C281.615 0.746667 219.868 12.1867 167.228 41.6267C167.335 41.0533 167.442 40.48 167.562 39.9067C173.842 37.5333 179.308 33.56 185.348 30.7067C223.908 11.3067 266.922 1.8 309.908 0C309.908 0 332.535 0 332.535 0Z" fill="url(#gradient_2)" />
          <path d="M259.52 12.5132C266.853 6.44654 275.28 0.286537 285.173 0.00653839C292.187 -0.206795 298.693 4.81988 300.573 11.5132C303.32 21.2599 300.627 31.3532 298.307 40.8999C296.16 49.8065 293.987 58.6999 291.747 67.5799C286.027 84.9399 277.813 101.393 267.987 116.78C274.36 110.327 279.387 102.767 285.067 95.7265C282.933 101.607 279.293 106.753 276.253 112.18C269.947 122.967 263.013 133.38 255.627 143.46C263.04 136.087 269.933 128.22 276.973 120.473C275.053 126.887 271.147 132.247 267.293 137.58C267.067 137.873 266.627 138.447 266.4 138.727C267.44 138.353 269.533 137.607 270.573 137.233C265.88 149.833 260.16 162.247 252.013 173.007C255.507 170.687 258.787 168.073 262.2 165.62C251.44 182.353 238.093 197.18 225.36 212.393C242.347 205.127 254.933 190.927 265.12 175.967C263.653 183.007 261.773 189.953 260.107 196.953C254.88 220.74 243.213 242.38 231.747 263.66C237.707 259.407 242.587 253.913 247.453 248.5C241.227 274.113 235.053 299.74 228.64 325.3C221.96 350.42 212.88 376.473 193.12 394.433C201.733 391.02 208.893 384.873 214.733 377.78C210.907 392.62 199.013 403.753 186.147 411.207C165.92 423.167 142.027 427.473 122.48 440.74C117.013 444.34 112.373 448.993 108.013 453.833C134.08 441.54 166.267 443.54 190.4 459.353C161.253 462.087 136.92 481.74 107.747 484.127C95.52 485.353 81.8267 482.02 74.0267 471.927C109.307 362.593 151.827 255.3 206.293 154.02C171.787 214.393 140.627 276.66 112.44 340.22C101.493 365.58 90.3333 390.9 81.5333 417.113C73.3333 440.82 65.44 464.647 58.3467 488.713C56.36 495.953 52.5333 502.487 49.6133 509.367C42.1067 525.647 34.7733 542.02 27.08 558.22C34.3733 522.833 44.84 488.18 56.2933 453.94C26.04 442.167 2.70667 413.087 0 380.433C10.3467 406.927 33.1866 428.393 60.6667 436.06C59.72 430.94 54.96 428.367 52.0133 424.54C42.52 412.833 37.4267 398.1 35.3867 383.3C32.3467 357.7 36.04 331.607 30.52 306.247C45.04 329.22 40.44 358.447 53.0667 382.153C56.3467 388.66 60.9467 394.46 66.5867 399.073C67.28 394.94 70 390.42 67.3733 386.473C34 321.487 51.88 234.393 108.853 188.42C104.133 207.233 105.36 227.473 112.747 245.433C112.56 214.233 120.653 183.353 134.507 155.5C149.2 125.247 170.213 98.5399 193.307 74.2732C214.28 52.5399 236.8 32.4065 259.52 12.5132Z" fill="url(#gradient_2)" transform="translate(141.535 95.193)" />
        </g>
      </g>
    </g>
  </g>
</svg>